<?xml version="1.0" encoding="UTF-8"?><svg xmlns="http://www.w3.org/2000/svg" viewBox="0 0 472.01 209.84"><defs><style>.cls-1{fill:#fff;}.cls-2{fill:#662d91;}</style></defs><g id="Layer_2"><path class="cls-2" d="M38.78,96.38v47.72H0L.95,0H62.78c6.21,0,27.39,9.7,27.39,9.7,0,0,17.79,15.81,19.2,20.61,.56,.85,5.36,15.25,4.52,18.92-.85,3.39-1.69,17.47-8.19,24.69-3.39,3.55-12.14,10.89-14.68,12.3s-2.26,3.78-2.26,3.78l16.38,21.63,23.15,32.47h-44.33l-33.6-47.72h-11.58Z"/><path class="cls-1" d="M38.78,24.1h11.29s23.72,1.69,24.85,22.59c.28,.28,.28,21.64-20.33,25.36,0,.33-15.81,0-15.81,0V24.1Z"/><path class="cls-2" d="M174.03,28.62c-33.9,0-61.38,27.48-61.38,61.38s27.48,61.38,61.38,61.38,61.38-27.48,61.38-61.38-27.48-61.38-61.38-61.38Zm1.55,89.79c-.56,0-5.36,1.13-7.91,0-2.54-1.13-9.46-6.21-11.86-14.68-2.12-9.04-3.81-19.48-.99-27.25-.14-.85,3.11-11.58,6.92-14.4,3.81-2.82,3.11-3.39,6.64-4.24l3.53-.85s14.96,.56,18.21,21.18c.14,.42,4.09,34.16-14.54,40.24Z"/><polygon class="cls-2" points="277.14 144.43 238.64 144.43 238.64 31.44 277.14 31.44 277.14 76.34 321.42 31.44 362.64 31.44 362.64 36.34 312.76 86.22 371.11 144.43 323.3 144.43 277 98.64 277.14 144.43"/><path class="cls-2" d="M362.27,31.44h38.21l-.38,58.56s.19,19.75,3.39,22.2c-.19,.38,6.4,6.96,12.61,4.89,.38-.19,7.91-1.13,12.42-6.02s5.08-4.33,5.08-10.35V31.44h38.4v112.38h-8.28l-17.32-14.31s-3.39,4.89-9.22,8.09-16,7.72-16,7.72l-9.79,1.32-13.18-.94-10.73-2.45s-10.35-4.33-11.11-5.65-13.18-12.05-14.12-25.04c0-.19,0-81.13,0-81.13Z"/></g><g id="Layer_3"><g><path d="M5.51,170.29H41.78v2.91H8.63v13.87h28.14v2.91H8.63v18.26h-3.11v-37.95Z"/><path d="M88.35,208.24H54.23v-37.95h3.11v35.1h31.01v2.85Z"/><path d="M127.66,194.49h-23.08l-7.27,13.75h-3.42l20.51-38.52h3.42c6.35,11.87,14.1,26.59,20.51,38.52h-3.36l-7.33-13.75Zm-21.55-2.85h20.02l-9.89-18.55h-.24l-9.89,18.55Z"/><path d="M166.06,209.84c-10.01,0-20.02-3.94-20.88-11.64l2.99-1.2c.31,6.56,9.1,9.87,17.89,9.87s17.64-2.97,17.64-9.82c0-11.41-37.12-3.42-37.12-16.89,0-8.79,11.48-11.36,19.35-11.36,8.97,0,18.13,3.25,20.64,11.24l-2.99,1.2c-1.77-6.79-10.01-9.53-17.95-9.53-5.37,0-15.57,1.26-15.57,8.22,0,10.1,36.94,2.51,36.94,16.95,0,9.02-10.44,12.95-20.94,12.95Z"/><path d="M240.84,208.24h-3.11v-18.03h-32.42v18.03h-3.11v-37.95h3.11v16.95h32.42v-16.95h3.11v37.95Z"/><path d="M259.88,170.29c2.08,0,15.02-.06,21.61-.06,1.71,0,3.42,.06,5.07,.06,7.81,.17,11.54,3.94,11.54,8.62,0,3.54-2.14,6.62-5.8,8.28,4.64,1.54,6.84,5.08,6.84,8.9,0,6.51-5.19,12.16-12.58,12.16h-26.68v-37.95Zm3.11,2.85v13.01h23.44c4.46,0,8.24-3.31,8.24-7.02,0-3.14-2.69-6.05-9.1-6.05s-13.98,0-22.59,.06Zm0,32.3l22.41,.06c6.17,0,10.38-4.45,10.38-9.25,0-4.05-3.36-7.19-9.65-7.19h-23.14v16.38Z"/><path d="M341.63,194.49h-23.08l-7.27,13.75h-3.42l20.51-38.52h3.42c6.35,11.87,14.1,26.59,20.51,38.52h-3.36l-7.33-13.75Zm-21.55-2.85h20.03l-9.89-18.55h-.24l-9.89,18.55Z"/><path d="M382.1,172.06c-10.99,0-19.29,5.93-19.29,16.83s8.06,17.63,19.29,17.63c7.94,0,16.24-3.42,17.4-12.1,.92,.34,1.77,.57,2.75,.86-1.22,10.56-11.36,14.21-20.45,14.21-13,0-22.28-8.73-22.28-20.6,0-12.9,9.89-19.75,22.65-19.75,10.01,0,17.16,4.85,20.27,12.84l-3.05,1.14c-2.56-6.79-8.55-11.07-17.28-11.07Z"/><path d="M456.57,170.29h4.82l-23.38,15.69c9.28,12.67,15.2,20.2,21.61,20.2,.79,0,1.59-.17,2.38-.4,.06,.91,.18,1.88,.3,2.8-1.28,.4-2.5,.63-3.66,.63-8.3,0-15.45-10.79-23.57-21.46l-14.77,9.82v10.67h-3.11v-37.95h3.11v24.08l36.26-24.08Z"/></g></g></svg>